<?xml version="1.0" encoding="utf-8"?>
<!-- Generator: Adobe Illustrator 22.0.0, SVG Export Plug-In . SVG Version: 6.00 Build 0)  -->
<svg version="1.1" id="Layer_1" xmlns="http://www.w3.org/2000/svg" xmlns:xlink="http://www.w3.org/1999/xlink" x="0px" y="0px"
	 viewBox="0 0 512 512" style="enable-background:new 0 0 512 512;" xml:space="preserve">
<style type="text/css">
	.st0{
		fill:#929292;
		cursor: pointer;
	}

</style>
<g>
	<path class="st0" d="M464,412.5c0,29.6-24,53.5-53.5,53.5h-309c-29.6,0-53.5-24-53.5-53.5v-44.5c0-4.1-3.3-7.5-7.5-7.5h0
		c-4.1,0-7.5,3.3-7.5,7.5V420c0,33.6,27.4,61,61,61h324c33.6,0,61-27.4,61-61v-49.4c0-4.1-3.3-7.5-7.5-7.5h0c-4.1,0-7.5,3.3-7.5,7.5
		V412.5z"/>
	<path class="st0" d="M418,33H94c-33.6,0-61,27.4-61,61v49.4c0,4.1,3.3,7.5,7.5,7.5h0c4.1,0,7.5-3.3,7.5-7.5v-42
		c0-29.6,24-53.5,53.5-53.5h309c29.6,0,53.5,24,53.5,53.5v44.5c0,4.1,3.3,7.5,7.5,7.5h0c4.1,0,7.5-3.3,7.5-7.5V94
		C479,60.4,451.6,33,418,33z"/>
	<path class="st0" d="M263,146.8v-45.5c0-4.1-3.3-7.4-7.4-7.4h-0.1c-4.1,0-7.4,3.3-7.4,7.4v45.5c0,4.1,3.3,7.4,7.4,7.4h0.1
		C259.6,154.2,263,150.9,263,146.8z"/>
</g>
<g>
	<path class="st0" d="M352.8,329c-3.9-1.7-8.5,0.1-10.2,4.1c-14.2,33.1-46.6,54.4-82.5,54.4c-47.6,0-86.5-37.2-89.6-84l32.1,27.3
		c3.3,2.7,8.1,2.4,10.9-0.8c2.7-3.3,2.4-8.1-0.8-10.9l-50-42.4l-42.4,49.9c-2.7,3.3-2.3,8.1,0.8,10.9c1.5,1.3,3.3,1.8,5,1.8
		c2.2,0,4.4-0.9,5.9-2.7l23.3-27.4c5.8,52.7,50.5,93.9,104.7,93.9c42.1,0,80.1-25,96.8-63.7C358.5,335.1,356.7,330.6,352.8,329z"/>
	<path class="st0" d="M388.3,240c-4.2-1.7-9,0.4-10.6,4.7l-13.8,35.7c-8.2-50.3-51.5-88.1-103.9-88.1c-40.3,0-77.6,23.5-95,59.8
		c-1.9,3.9-0.2,8.5,3.7,10.3c3.9,1.9,8.5,0.2,10.3-3.7c14.9-31,46.7-51,81.1-51c46.1,0,83.9,34.2,89.2,79.2l-42.6-16.5
		c-4.2-1.6-9,0.4-10.6,4.7c-1.7,4.2,0.4,9,4.7,10.6l68.5,26.5l23.8-61.5C394.6,246.3,392.5,241.6,388.3,240z"/>
</g>
<g>
	<path class="st0" d="M325.1,117.1L325.1,117.1c-26.1,0-41.8,11.9-46.9,35.3c-0.9,4.2,2.1,8.3,6.4,8.8l0.3,0
		c3.7,0.4,7.1-2.1,7.9-5.8c3.6-16.3,13.5-23.3,32.2-23.3h0c1,0,100.9,11.8,100.9,199.3c0,17.2-4.8,33.4-12,38.4
		c-10.3,9.5-29.3,10.3-48.8,6.6c-4-0.8-7.7,1.8-8.6,5.8c0,0,0,0.1,0,0.1c-0.9,4,1.7,8,5.7,8.8c7.9,1.6,15.8,2.5,23.4,2.5
		c14.6,0,27.9-3.4,37.4-12c0.2-0.2,0.4-0.3,0.6-0.4c12.7-9,17.3-32.4,17.3-49.8C440.9,153.5,349.5,117.1,325.1,117.1z"/>
</g>
<g>
	<path class="st0" d="M182.2,117.1L182.2,117.1c26.1,0,41.8,11.9,46.9,35.3c0.9,4.2-2.1,8.3-6.4,8.8l-0.3,0
		c-3.7,0.4-7.1-2.1-7.9-5.8c-3.6-16.3-13.5-23.3-32.2-23.3h0c-1,0-100.9,11.8-100.9,199.3c0,17.2,4.8,33.4,12,38.4
		c10.3,9.5,29.3,10.3,48.8,6.6c4-0.8,7.7,1.8,8.6,5.8c0,0,0,0.1,0,0.1c0.9,4-1.7,8-5.7,8.8c-7.9,1.6-15.8,2.5-23.4,2.5
		c-14.6,0-27.9-3.4-37.4-12c-0.2-0.2-0.4-0.3-0.6-0.4c-12.7-9-17.3-32.4-17.3-49.8C66.4,153.5,157.8,117.1,182.2,117.1z"/>
</g>
</svg>
